<svg xmlns="http://www.w3.org/2000/svg" width="40" height="40" viewBox="0 0 10.583 10.583"><g fill="#fff" fill-opacity=".946" color="#000" transform="matrix(.90559 0 0 .86896 .772 -247.893)"><rect width="1.451" height="1.451" x="4.266" y="288.474" overflow="visible" paint-order="stroke markers fill" rx="0" ry="0" style="marker:none"/><g transform="translate(-.13)"><rect width="1.451" height="1.451" x="6.445" y="288.474" overflow="visible" paint-order="stroke markers fill" rx="0" ry="0" style="marker:none"/><rect width="1.451" height="1.451" x="2.345" y="288.474" overflow="visible" paint-order="stroke markers fill" rx="0" ry="0" style="marker:none"/></g><rect width="1.451" height="1.451" x="4.266" y="290.631" overflow="visible" paint-order="stroke markers fill" rx="0" ry="0" style="marker:none"/><g transform="translate(-.13 2.157)"><rect width="1.451" height="1.451" x="6.445" y="288.474" overflow="visible" paint-order="stroke markers fill" rx="0" ry="0" style="marker:none"/><rect width="1.451" height="1.451" x="2.345" y="288.474" overflow="visible" paint-order="stroke markers fill" rx="0" ry="0" style="marker:none"/></g><rect width="1.451" height="1.451" x="4.266" y="292.808" overflow="visible" paint-order="stroke markers fill" rx="0" ry="0" style="marker:none"/><g transform="translate(-.13 4.334)"><rect width="1.451" height="1.451" x="6.445" y="288.474" overflow="visible" paint-order="stroke markers fill" rx="0" ry="0" style="marker:none"/><rect width="1.451" height="1.451" x="2.345" y="288.474" overflow="visible" paint-order="stroke markers fill" rx="0" ry="0" style="marker:none"/></g></g></svg>