<?xml version="1.0" encoding="UTF-8" standalone="no"?>
<svg
   xmlns:dc="http://purl.org/dc/elements/1.1/"
   xmlns:cc="http://creativecommons.org/ns#"
   xmlns:rdf="http://www.w3.org/1999/02/22-rdf-syntax-ns#"
   xmlns:svg="http://www.w3.org/2000/svg"
   xmlns="http://www.w3.org/2000/svg"
   xmlns:sodipodi="http://sodipodi.sourceforge.net/DTD/sodipodi-0.dtd"
   xmlns:inkscape="http://www.inkscape.org/namespaces/inkscape"
   width="571.907"
   height="156.921"
   viewBox="0 0 151.317 41.519"
   version="1.1"
   id="svg901"
   sodipodi:docname="layout-side-menu-with-categories.svg"
   inkscape:version="0.92.4 (5da689c313, 2019-01-14)">
  <metadata
     id="metadata907">
    <rdf:RDF>
      <cc:Work
         rdf:about="">
        <dc:format>image/svg+xml</dc:format>
        <dc:type
           rdf:resource="http://purl.org/dc/dcmitype/StillImage" />
        <dc:title></dc:title>
      </cc:Work>
    </rdf:RDF>
  </metadata>
  <defs
     id="defs905" />
  <sodipodi:namedview
     pagecolor="#ffffff"
     bordercolor="#666666"
     borderopacity="1"
     objecttolerance="10"
     gridtolerance="10"
     guidetolerance="10"
     inkscape:pageopacity="0"
     inkscape:pageshadow="2"
     inkscape:window-width="1918"
     inkscape:window-height="1036"
     id="namedview903"
     showgrid="false"
     inkscape:zoom="1.6086532"
     inkscape:cx="455.61054"
     inkscape:cy="16.694081"
     inkscape:window-x="0"
     inkscape:window-y="21"
     inkscape:window-maximized="0"
     inkscape:current-layer="svg901"
     showguides="false" />
  <path
     style="marker:none"
     color="#000"
     overflow="visible"
     fill="#fff"
     stroke="#b3b3b3"
     stroke-width=".359"
     stroke-linecap="square"
     paint-order="fill markers stroke"
     d="M.18.18h58.532v41.16H.18zM62.735.18h58.532v41.16H62.735z"
     id="path853" />
  <g
     fill="#b3b3b3"
     stroke="#ccc"
     fill-rule="evenodd"
     stroke-width="1.465"
     stroke-linecap="round"
     id="g857">
    <path
       d="M84.066 21.35l5.055-5.056M82.925 29.835l18.152-18.151M95.893 25.225l3.585-3.586"
       id="path855" />
  </g>
  <path
     style="marker:none"
     color="#000"
     overflow="visible"
     fill="none"
     stroke="#b3b3b3"
     stroke-width=".359"
     stroke-linecap="square"
     paint-order="fill markers stroke"
     d="M62.735.18h58.532v41.16H62.735z"
     id="path861" />
  <path
     style="marker:none"
     color="#000"
     overflow="visible"
     fill="#f9f9f9"
     stroke="#ccc"
     stroke-width=".359"
     stroke-linecap="square"
     paint-order="fill markers stroke"
     d="M.18.18h58.532v5.063H.18z"
     id="path877" />
  <path
     style="marker:none"
     color="#000"
     overflow="visible"
     fill="none"
     stroke="#b3b3b3"
     stroke-width=".359"
     stroke-linecap="square"
     paint-order="fill markers stroke"
     d="M.18.18h58.532v41.16H.18z"
     id="path879" />
  <path
     style="marker:none"
     color="#000"
     overflow="visible"
     fill="#666"
     stroke="#ccc"
     stroke-width=".359"
     stroke-linecap="square"
     paint-order="fill markers stroke"
     d="M1.357 1.034h3.496V4.39H1.357z"
     id="path881" />
  <path
     style="marker:none"
     color="#000"
     overflow="visible"
     fill="#e6e6e6"
     stroke="#ccc"
     stroke-width=".359"
     stroke-linecap="square"
     paint-order="fill markers stroke"
     d="M6.068 1.034h6.102V4.39H6.068z"
     id="path883" />
  <g
     fill="#b3b3b3"
     stroke="#ccc"
     fill-rule="evenodd"
     stroke-width="1.465"
     stroke-linecap="round"
     id="g887">
    <path
       d="M21.51 21.35l5.056-5.056M20.37 29.835L38.52 11.684M33.337 25.225l3.586-3.586"
       id="path885" />
  </g>
  <path
     style="marker:none"
     color="#000"
     overflow="visible"
     fill="#fff"
     stroke="#b3b3b3"
     stroke-width=".359"
     stroke-linecap="square"
     paint-order="fill markers stroke"
     d="M125.857.18h25.28v41.16h-25.28z"
     id="path889" />
  <path
     style="marker:none"
     color="#000"
     overflow="visible"
     fill="#f9f9f9"
     stroke="#ccc"
     stroke-width=".359"
     stroke-linecap="square"
     paint-order="fill markers stroke"
     d="M125.857.18h25.257v5.063h-25.257z"
     id="path891" />
  <path
     style="marker:none"
     color="#000"
     overflow="visible"
     fill="none"
     stroke="#b3b3b3"
     stroke-width=".359"
     stroke-linecap="square"
     paint-order="fill markers stroke"
     d="M125.857.18h25.257v41.16h-25.257z"
     id="path893" />
  <path
     style="marker:none"
     color="#000"
     overflow="visible"
     fill="#4d4d4d"
     stroke="#b3b3b3"
     stroke-width=".359"
     stroke-linecap="square"
     paint-order="fill markers stroke"
     d="M125.857.18h20.829v41.16h-20.83z"
     id="path895" />
  <path
     style="marker:none"
     color="#000"
     overflow="visible"
     fill="#666"
     stroke="#ccc"
     stroke-width=".359"
     stroke-linecap="square"
     paint-order="fill markers stroke"
     d="M127.034 1.034h3.496V4.39h-3.496z"
     id="path897" />
  <path
     style="marker:none"
     color="#000"
     overflow="visible"
     fill="#e6e6e6"
     stroke="#ccc"
     stroke-width=".359"
     stroke-linecap="square"
     paint-order="fill markers stroke"
     d="M127.569 10.155h1.893v1.81h-1.893zM130.498 10.486h12.463v1.148h-12.463zM127.569 13.696h1.893v1.81h-1.893zM130.498 14.027h10.592v1.148h-10.592zM127.569 17.104h1.893v1.81h-1.893zM130.498 17.435h12.997v1.148h-12.997zM127.569 24.708h1.893v1.81h-1.893zM130.498 25.04h7.585v1.147h-7.585zM127.569 28.116h1.893v1.81h-1.893zM130.498 28.447h11.46v1.148h-11.46zM127.569 31.657h1.893v1.81h-1.893zM130.498 31.988h9.322v1.148h-9.322zM127.569 35.065h1.893v1.81h-1.893zM130.498 35.396h11.126v1.148h-11.126zM127.616 6.848h11.518v1.148h-11.518zM127.569 21.311h9.344v1.148h-9.344z"
     id="path899" />
  <path
     inkscape:connector-curvature="0"
     style="color:#000000;overflow:visible;fill:#4d4d4d;stroke:#b3b3b3;stroke-width:0.359;stroke-linecap:square;marker:none;paint-order:fill markers stroke"
     overflow="visible"
     d="m 62.728587,0.17999881 h 20.829 V 41.34 h -20.83 z"
     id="path895-5" />
  <path
     inkscape:connector-curvature="0"
     style="color:#000000;overflow:visible;fill:#666666;stroke:#cccccc;stroke-width:0.359;stroke-linecap:square;marker:none;paint-order:fill markers stroke"
     overflow="visible"
     d="m 63.905587,1.0339988 h 3.496 V 4.389999 h -3.496 z"
     id="path897-3" />
  <path
     inkscape:connector-curvature="0"
     style="color:#000000;overflow:visible;fill:#e6e6e6;stroke:#cccccc;stroke-width:0.359;stroke-linecap:square;marker:none;paint-order:fill markers stroke"
     overflow="visible"
     d="m 64.440587,10.154999 h 1.893 v 1.81 h -1.893 z m 2.929,0.331 h 12.463 v 1.148 h -12.463 z m -2.929,3.21 h 1.893 v 1.81 h -1.893 z m 2.929,0.331 h 10.592 v 1.148 h -10.592 z m -2.929,3.077 h 1.893 v 1.81 h -1.893 z m 2.929,0.331 h 12.997 v 1.148 h -12.997 z m -2.929,7.273 h 1.893 V 26.518 h -1.893 z m 2.929,0.332 h 7.585 v 1.147 h -7.585 z m -2.929,3.076001 h 1.893 v 1.81 h -1.893 z m 2.929,0.330999 h 11.46 v 1.147999 h -11.46 z m -2.929,3.21 h 1.893 v 1.809999 h -1.893 z m 2.929,0.330999 h 9.322 v 1.148001 h -9.322 z m -2.929,3.077001 h 1.893 v 1.809999 h -1.893 z m 2.929,0.331001 h 11.126 v 1.147999 h -11.126 z m -2.882,-28.5480012 h 11.518 v 1.1480001 h -11.518 z m -0.047,14.4630002 h 9.344 v 1.148 h -9.344 z"
     id="path899-5" />
</svg>
