<svg xmlns="http://www.w3.org/2000/svg" width="571.907" height="156.921" viewBox="0 0 151.317 41.519">
  <path style="marker:none" color="#000" overflow="visible" fill="#fff" stroke="#b3b3b3" stroke-width=".359" stroke-linecap="square" paint-order="fill markers stroke" d="M.18.18h58.532v41.16H.18zM62.735.18h58.532v41.16H62.735z"/>
  <g fill="#b3b3b3" stroke="#ccc" fill-rule="evenodd" stroke-width="1.465" stroke-linecap="round">
    <path d="M84.066 21.35l5.055-5.056M82.925 29.835l18.152-18.151M95.893 25.225l3.585-3.586"/>
  </g>
  <path style="marker:none" color="#000" overflow="visible" fill="#4d4d4d" stroke="#b3b3b3" stroke-width=".359" stroke-linecap="square" paint-order="fill markers stroke" d="M62.735.18h58.532v25.123H62.735z"/>
  <path style="marker:none" color="#000" overflow="visible" fill="none" stroke="#b3b3b3" stroke-width=".359" stroke-linecap="square" paint-order="fill markers stroke" d="M62.735.18h58.532v41.16H62.735z"/>
  <path style="marker:none" color="#000" overflow="visible" fill="#666" stroke="#ccc" stroke-width=".359" stroke-linecap="square" paint-order="fill markers stroke" d="M63.738 1.034h3.496V4.39h-3.496z"/>
  <g stroke-width=".401" color="#000" fill="#e6e6e6" stroke="#ccc" stroke-linecap="square">
    <path style="marker:none" overflow="visible" paint-order="fill markers stroke" d="M38.862 110.138h1.893v1.81h-1.893zM41.792 110.469h12.463v1.148H41.792zM38.862 113.679h1.893v1.81h-1.893zM41.792 114.01h10.592v1.148H41.792zM38.862 117.087h1.893v1.81h-1.893zM41.792 117.418h12.997v1.148H41.792zM38.862 120.628h1.893v1.81h-1.893zM41.792 120.959h7.585v1.148h-7.585z" transform="matrix(.89632 0 0 .8943 38.412 -87.8)"/>
  </g>
  <g stroke-width=".401" color="#000" fill="#e6e6e6" stroke="#ccc" stroke-linecap="square">
    <path style="marker:none" overflow="visible" paint-order="fill markers stroke" d="M65.723 110.272h1.893v1.81h-1.893zM68.652 110.602h11.46v1.148h-11.46zM65.723 113.813h1.893v1.81h-1.893zM68.652 114.144h9.322v1.148h-9.322zM65.723 117.221h1.893v1.81h-1.893zM68.652 117.551h11.126v1.148H68.652zM65.723 120.762h1.893v1.81h-1.893zM68.652 121.093h12.863v1.148H68.652z" transform="matrix(.89632 0 0 .8943 34.262 -87.919)"/>
  </g>
  <path style="marker:none" color="#000" overflow="visible" fill="#666" stroke="#ccc" stroke-width=".359" stroke-linecap="square" paint-order="fill markers stroke" d="M116.257 1.034h3.496V4.39h-3.496z"/>
  <path style="marker:none" color="#000" overflow="visible" fill="#e6e6e6" stroke="#ccc" stroke-width=".359" stroke-linecap="square" paint-order="fill markers stroke" d="M72.715 6.186h11.518v1.148H72.715zM92.452 6.186h9.344v1.148h-9.344z"/>
  <path style="marker:none" color="#000" overflow="visible" fill="#f9f9f9" stroke="#ccc" stroke-width=".359" stroke-linecap="square" paint-order="fill markers stroke" d="M.18.18h58.532v5.063H.18z"/>
  <path style="marker:none" color="#000" overflow="visible" fill="none" stroke="#b3b3b3" stroke-width=".359" stroke-linecap="square" paint-order="fill markers stroke" d="M.18.18h58.532v41.16H.18z"/>
  <path style="marker:none" color="#000" overflow="visible" fill="#666" stroke="#ccc" stroke-width=".359" stroke-linecap="square" paint-order="fill markers stroke" d="M1.357 1.034h3.496V4.39H1.357z"/>
  <path style="marker:none" color="#000" overflow="visible" fill="#e6e6e6" stroke="#ccc" stroke-width=".359" stroke-linecap="square" paint-order="fill markers stroke" d="M6.068 1.034h6.102V4.39H6.068z"/>
  <g fill="#b3b3b3" stroke="#ccc" fill-rule="evenodd" stroke-width="1.465" stroke-linecap="round">
    <path d="M21.51 21.35l5.056-5.056M20.37 29.835L38.52 11.684M33.337 25.225l3.586-3.586"/>
  </g>
  <path style="marker:none" color="#000" overflow="visible" fill="#fff" stroke="#b3b3b3" stroke-width=".359" stroke-linecap="square" paint-order="fill markers stroke" d="M125.857.18h25.28v41.16h-25.28z"/>
  <path style="marker:none" color="#000" overflow="visible" fill="#f9f9f9" stroke="#ccc" stroke-width=".359" stroke-linecap="square" paint-order="fill markers stroke" d="M125.857.18h25.257v5.063h-25.257z"/>
  <path style="marker:none" color="#000" overflow="visible" fill="none" stroke="#b3b3b3" stroke-width=".359" stroke-linecap="square" paint-order="fill markers stroke" d="M125.857.18h25.257v41.16h-25.257z"/>
  <path style="marker:none" color="#000" overflow="visible" fill="#4d4d4d" stroke="#b3b3b3" stroke-width=".359" stroke-linecap="square" paint-order="fill markers stroke" d="M125.857.18h20.829v41.16h-20.83z"/>
  <path style="marker:none" color="#000" overflow="visible" fill="#666" stroke="#ccc" stroke-width=".359" stroke-linecap="square" paint-order="fill markers stroke" d="M127.034 1.034h3.496V4.39h-3.496z"/>
  <path style="marker:none" color="#000" overflow="visible" fill="#e6e6e6" stroke="#ccc" stroke-width=".359" stroke-linecap="square" paint-order="fill markers stroke" d="M127.569 10.155h1.893v1.81h-1.893zM130.498 10.486h12.463v1.148h-12.463zM127.569 13.696h1.893v1.81h-1.893zM130.498 14.027h10.592v1.148h-10.592zM127.569 17.104h1.893v1.81h-1.893zM130.498 17.435h12.997v1.148h-12.997zM127.569 24.708h1.893v1.81h-1.893zM130.498 25.04h7.585v1.147h-7.585zM127.569 28.116h1.893v1.81h-1.893zM130.498 28.447h11.46v1.148h-11.46zM127.569 31.657h1.893v1.81h-1.893zM130.498 31.988h9.322v1.148h-9.322zM127.569 35.065h1.893v1.81h-1.893zM130.498 35.396h11.126v1.148h-11.126zM127.616 6.848h11.518v1.148h-11.518zM127.569 21.311h9.344v1.148h-9.344z"/>
</svg>
