<svg xmlns="http://www.w3.org/2000/svg" width="571.907" height="156.921" viewBox="0 0 151.317 41.519">
  <path style="marker:none" color="#000" overflow="visible" fill="#fff" stroke="#b3b3b3" stroke-width=".359" stroke-linecap="square" paint-order="fill markers stroke" d="M.18.18H58.71v41.16H.18z"/>
  <path style="marker:none" color="#000" overflow="visible" fill="#f9f9f9" stroke="#ccc" stroke-width=".359" stroke-linecap="square" paint-order="fill markers stroke" d="M.18.18H58.71v5.062H.18z"/>
  <path style="marker:none" color="#000" overflow="visible" fill="#4d4d4d" stroke="#b3b3b3" stroke-width=".359" stroke-linecap="square" paint-order="fill markers stroke" d="M.18.18h6.128v41.16H.18z"/>
  <path style="marker:none" color="#000" overflow="visible" fill="#666" stroke="#ccc" stroke-width=".359" stroke-linecap="square" paint-order="fill markers stroke" d="M1.496 1.034h3.496V4.39H1.496z"/>
  <path style="marker:none" color="#000" overflow="visible" fill="#e6e6e6" stroke="#ccc" stroke-width=".359" stroke-linecap="square" paint-order="fill markers stroke" d="M2.297 7.455H4.19v1.81H2.297zM2.297 10.997H4.19v1.81H2.297zM2.297 14.404H4.19v1.81H2.297zM2.297 17.946H4.19v1.81H2.297zM2.297 21.353H4.19v1.81H2.297zM2.297 24.895H4.19v1.81H2.297zM2.297 28.302H4.19v1.81H2.297zM2.297 31.844H4.19v1.81H2.297zM7.136 1.034h6.102V4.39H7.136z"/>
  <g fill="#b3b3b3" stroke="#ccc" fill-rule="evenodd" stroke-width="1.465" stroke-linecap="round">
    <path d="M24.44 21.35l5.056-5.056M23.3 29.835l18.15-18.151M36.267 25.225l3.585-3.586"/>
  </g>
  <path style="marker:none" color="#000" overflow="visible" fill="#fff" stroke="#b3b3b3" stroke-width=".359" stroke-linecap="square" paint-order="fill markers stroke" d="M62.865.18h58.532v41.16H62.865z"/>
  <path style="marker:none" color="#000" overflow="visible" fill="#f9f9f9" stroke="#ccc" stroke-width=".359" stroke-linecap="square" paint-order="fill markers stroke" d="M62.865.18h58.532v5.062H62.865z"/>
  <path style="marker:none" color="#000" overflow="visible" fill="none" stroke="#b3b3b3" stroke-width=".359" stroke-linecap="square" paint-order="fill markers stroke" d="M62.865.18h58.532v41.16H62.865z"/>
  <g fill="#b3b3b3" stroke="#ccc" fill-rule="evenodd" stroke-width="1.465" stroke-linecap="round">
    <path d="M84.197 21.35l5.055-5.056M83.056 29.835l18.152-18.151M96.024 25.225l3.585-3.586"/>
  </g>
  <g color="#000" stroke-width=".359" stroke-linecap="square">
    <path style="marker:none" overflow="visible" fill="#4d4d4d" stroke="#b3b3b3" paint-order="fill markers stroke" d="M62.866.18h20.829v41.16h-20.83z"/>
    <path style="marker:none" overflow="visible" fill="#666" stroke="#ccc" paint-order="fill markers stroke" d="M64.044 1.034h3.496V4.39h-3.496z"/>
    <path style="marker:none" overflow="visible" fill="#e6e6e6" stroke="#ccc" paint-order="fill markers stroke" d="M64.578 8.076h1.893v1.81h-1.893zM67.507 8.407H79.97v1.148H67.507zM64.578 11.617h1.893v1.81h-1.893zM67.507 11.948h10.592v1.148H67.507zM64.578 15.025h1.893v1.81h-1.893zM67.507 15.356h12.997v1.148H67.507zM64.578 18.566h1.893v1.81h-1.893zM67.507 18.897h7.585v1.148h-7.585zM64.578 21.974h1.893v1.81h-1.893zM67.507 22.305h11.46v1.148h-11.46zM64.578 25.515h1.893v1.81h-1.893zM67.507 25.846h9.322v1.148h-9.322zM64.578 28.923h1.893v1.81h-1.893zM67.507 29.254h11.126v1.148H67.507zM64.578 32.464h1.893v1.81h-1.893zM67.507 32.795H80.37v1.148H67.507z"/>
  </g>
  <path style="marker:none" color="#000" overflow="visible" fill="#fff" stroke="#b3b3b3" stroke-width=".359" stroke-linecap="square" paint-order="fill markers stroke" d="M125.856.18h25.281v41.16h-25.28z"/>
  <path style="marker:none" color="#000" overflow="visible" fill="#f9f9f9" stroke="#ccc" stroke-width=".359" stroke-linecap="square" paint-order="fill markers stroke" d="M125.856.18h25.257v5.062h-25.257z"/>
  <path style="marker:none" color="#000" overflow="visible" fill="none" stroke="#b3b3b3" stroke-width=".359" stroke-linecap="square" paint-order="fill markers stroke" d="M125.856.18h25.257v41.16h-25.257z"/>
  <path style="marker:none" color="#000" overflow="visible" fill="#4d4d4d" stroke="#b3b3b3" stroke-width=".359" stroke-linecap="square" paint-order="fill markers stroke" d="M125.856.18h20.83v41.16h-20.83z"/>
  <path style="marker:none" color="#000" overflow="visible" fill="#666" stroke="#ccc" stroke-width=".359" stroke-linecap="square" paint-order="fill markers stroke" d="M127.034 1.034h3.496V4.39h-3.496z"/>
  <path style="marker:none" color="#000" overflow="visible" fill="#e6e6e6" stroke="#ccc" stroke-width=".359" stroke-linecap="square" paint-order="fill markers stroke" d="M127.568 8.076h1.893v1.81h-1.893zM130.497 8.407h12.463v1.148h-12.463zM127.568 11.617h1.893v1.81h-1.893zM130.497 11.948h10.592v1.148h-10.592zM127.568 15.025h1.893v1.81h-1.893zM130.497 15.356h12.997v1.148h-12.997zM127.568 18.566h1.893v1.81h-1.893zM130.497 18.897h7.585v1.148h-7.585zM127.568 21.974h1.893v1.81h-1.893zM130.497 22.305h11.46v1.148h-11.46zM127.568 25.515h1.893v1.81h-1.893zM130.497 25.846h9.322v1.148h-9.322zM127.568 28.923h1.893v1.81h-1.893zM130.497 29.254h11.126v1.148h-11.126zM127.568 32.464h1.893v1.81h-1.893zM130.497 32.795h12.863v1.148h-12.863z"/>
</svg>
