<svg xmlns="http://www.w3.org/2000/svg" width="571.907" height="156.921" viewBox="0 0 151.317 41.519">
  <path style="marker:none" color="#000" overflow="visible" fill="#fff" stroke="#b3b3b3" stroke-width=".359" stroke-linecap="square" paint-order="fill markers stroke" d="M62.735.18h58.532v41.16H62.735zM.18.18h58.532v41.16H.18z"/>
  <path style="marker:none" color="#000" overflow="visible" fill="#f9f9f9" stroke="#ccc" stroke-width=".359" stroke-linecap="square" paint-order="fill markers stroke" d="M.18.18h58.532v5.063H.18z"/>
  <path style="marker:none" color="#000" overflow="visible" fill="none" stroke="#b3b3b3" stroke-width=".359" stroke-linecap="square" paint-order="fill markers stroke" d="M.18.18h58.532v41.16H.18z"/>
  <path style="marker:none" color="#000" overflow="visible" fill="#666" stroke="#ccc" stroke-width=".359" stroke-linecap="square" paint-order="fill markers stroke" d="M1.357 1.034h3.496V4.39H1.357z"/>
  <path style="marker:none" color="#000" overflow="visible" fill="#e6e6e6" stroke="#ccc" stroke-width=".359" stroke-linecap="square" paint-order="fill markers stroke" d="M6.068 1.034h6.102V4.39H6.068z"/>
  <g fill="#b3b3b3" stroke="#ccc" fill-rule="evenodd" stroke-width="1.465" stroke-linecap="round">
    <path d="M21.51 21.35l5.056-5.056M20.37 29.835L38.52 11.684M33.337 25.225l3.586-3.586"/>
  </g>
  <path style="marker:none" color="#000" overflow="visible" fill="#f9f9f9" stroke="#ccc" stroke-width=".359" stroke-linecap="square" paint-order="fill markers stroke" d="M62.735.18h58.532v5.063H62.735z"/>
  <path style="marker:none" color="#000" overflow="visible" fill="none" stroke="#b3b3b3" stroke-width=".359" stroke-linecap="square" paint-order="fill markers stroke" d="M62.735.18h58.532v41.16H62.735z"/>
  <g fill="#b3b3b3" stroke="#ccc" fill-rule="evenodd" stroke-width="1.465" stroke-linecap="round">
    <path d="M84.066 21.35l5.055-5.056M82.925 29.835l18.152-18.151M95.893 25.225l3.585-3.586"/>
  </g>
  <path style="marker:none" color="#000" overflow="visible" fill="#4d4d4d" stroke="#b3b3b3" stroke-width=".359" stroke-linecap="square" paint-order="fill markers stroke" d="M62.735.18h20.829v41.16h-20.83z"/>
  <path style="marker:none" color="#000" overflow="visible" fill="#666" stroke="#ccc" stroke-width=".359" stroke-linecap="square" paint-order="fill markers stroke" d="M63.912 1.034h3.496V4.39h-3.496z"/>
  <path style="marker:none" color="#000" overflow="visible" fill="#e6e6e6" stroke="#ccc" stroke-width=".359" stroke-linecap="square" paint-order="fill markers stroke" d="M64.447 8.076h1.893v1.81h-1.893zM67.376 8.407h12.463v1.148H67.376zM64.447 11.617h1.893v1.81h-1.893zM67.376 11.948h10.592v1.148H67.376zM64.447 15.025h1.893v1.81h-1.893zM67.376 15.356h12.997v1.148H67.376zM64.447 18.566h1.893v1.81h-1.893zM67.376 18.897h7.585v1.148h-7.585zM64.447 21.974h1.893v1.81h-1.893zM67.376 22.305h11.46v1.148h-11.46zM64.447 25.515h1.893v1.81h-1.893zM67.376 25.846h9.322v1.148h-9.322zM64.447 28.923h1.893v1.81h-1.893zM67.376 29.254h11.126v1.148H67.376zM64.447 32.464h1.893v1.81h-1.893zM67.376 32.795h12.863v1.148H67.376z"/>
  <path style="marker:none" color="#000" overflow="visible" fill="#fff" stroke="#b3b3b3" stroke-width=".359" stroke-linecap="square" paint-order="fill markers stroke" d="M125.857.18h25.28v41.16h-25.28z"/>
  <path style="marker:none" color="#000" overflow="visible" fill="#f9f9f9" stroke="#ccc" stroke-width=".359" stroke-linecap="square" paint-order="fill markers stroke" d="M125.857.18h25.257v5.063h-25.257z"/>
  <path style="marker:none" color="#000" overflow="visible" fill="none" stroke="#b3b3b3" stroke-width=".359" stroke-linecap="square" paint-order="fill markers stroke" d="M125.857.18h25.257v41.16h-25.257z"/>
  <path style="marker:none" color="#000" overflow="visible" fill="#4d4d4d" stroke="#b3b3b3" stroke-width=".359" stroke-linecap="square" paint-order="fill markers stroke" d="M125.857.18h20.829v41.16h-20.83z"/>
  <path style="marker:none" color="#000" overflow="visible" fill="#666" stroke="#ccc" stroke-width=".359" stroke-linecap="square" paint-order="fill markers stroke" d="M127.034 1.034h3.496V4.39h-3.496z"/>
  <path style="marker:none" color="#000" overflow="visible" fill="#e6e6e6" stroke="#ccc" stroke-width=".359" stroke-linecap="square" paint-order="fill markers stroke" d="M127.569 8.076h1.893v1.81h-1.893zM130.498 8.407h12.463v1.148h-12.463zM127.569 11.617h1.893v1.81h-1.893zM130.498 11.948h10.592v1.148h-10.592zM127.569 15.025h1.893v1.81h-1.893zM130.498 15.356h12.997v1.148h-12.997zM127.569 18.566h1.893v1.81h-1.893zM130.498 18.897h7.585v1.148h-7.585zM127.569 21.974h1.893v1.81h-1.893zM130.498 22.305h11.46v1.148h-11.46zM127.569 25.515h1.893v1.81h-1.893zM130.498 25.846h9.322v1.148h-9.322zM127.569 28.923h1.893v1.81h-1.893zM130.498 29.254h11.126v1.148h-11.126zM127.569 32.464h1.893v1.81h-1.893zM130.498 32.795h12.863v1.148h-12.863z"/>
</svg>
